<?xml version="1.0" encoding="UTF-8"?>
<!DOCTYPE svg PUBLIC "-//W3C//DTD SVG 1.1//EN" "http://www.w3.org/Graphics/SVG/1.1/DTD/svg11.dtd">
<!-- Creator: CorelDRAW 2018 -->
<svg xmlns="http://www.w3.org/2000/svg" xml:space="preserve" width="222mm" height="94mm" version="1.1" style="shape-rendering:geometricPrecision; text-rendering:geometricPrecision; image-rendering:optimizeQuality; fill-rule:evenodd; clip-rule:evenodd"
viewBox="0 0 22200 9400"
 xmlns:xlink="http://www.w3.org/1999/xlink">
 <defs>
  <style type="text/css">
   <![CDATA[
    .str1 {stroke:#fff;stroke-width:50;stroke-miterlimit:22.9256}
    .str0 {stroke:#fff;stroke-width:25;stroke-miterlimit:22.9256}
    .fil0 {fill:#7DB332}
    .fil2 {fill:white;fill-rule:nonzero}
    .fil1 {fill:url(#id0)}
   ]]>
  </style>
  <linearGradient id="id0" gradientUnits="userSpaceOnUse" x1="5077.2" y1="3910.15" x2="3687.25" y2="955.48">
   <stop offset="0" style="stop-opacity:1; stop-color:#09614B"/>
   <stop offset="1" style="stop-opacity:1; stop-color:#3ED1A5"/>
  </linearGradient>
 </defs>
 <g id="Layer_x0020_1">
  <metadata id="CorelCorpID_0Corel-Layer"/>
  <g id="_793248536">
   <g>
    <path class="fil0" d="M1039.01 3347.22l-1008.67 4027.43c1641.73,-364.68 4335.99,-620.09 4899.54,-2870.25 462,-1844.67 546.68,-2182.76 1008.68,-4027.43 -1642.68,364.89 -4337.86,627.57 -4899.55,2870.25z"/>
    <path class="fil1" d="M4414.82 685.39l3703.95 -701.09c-343.51,1359.12 -797.89,3688.52 -3812.56,4221.21 -2028.51,358.44 -1626.9,297.68 -3660.51,675.82l391.51 -1559.17c418.7,-1667.43 1726.87,-2324.3 3377.61,-2636.77z"/>
   </g>
   <path class="fil2 str0" d="M7608.06 6370.93l483.04 -2889.73 375.02 0 -432.87 2558.84 1147.08 0 -50.19 330.89 -1522.08 0zm2174.24 0l483.03 -2889.73 1522.08 0 -59.4 339.71 -1147.08 0 -151.42 913.25 1058.85 0 -59.22 335.29 -1058.82 0 -162.44 961.77 1147.08 0 -50.59 339.71 -1522.07 0zm3270.37 52.96c-282.34,0 -494.69,-68.39 -637.07,-205.18 -142.37,-136.75 -207.88,-331.61 -196.47,-584.54 2.64,-58.84 9.75,-119.13 21.35,-180.9l187.82 -1133.83c48.93,-302.95 156.1,-527.22 321.47,-672.8 165.37,-145.58 403.96,-218.37 715.73,-218.37 117.64,0 251.66,12.48 401.99,37.49 150.36,25.01 280.63,55.14 390.81,90.44l-59.64 344.12c-118.61,-44.11 -247.11,-80.15 -385.59,-108.1 -138.42,-27.94 -265.01,-41.91 -379.71,-41.91 -185.31,0 -328.41,42.66 -429.32,127.96 -100.88,85.29 -167.38,223.51 -199.55,414.69l-205.22 1226.48c-8.25,52.96 -12.93,91.19 -13.97,114.73 -6.89,152.94 32.07,267.65 116.84,344.12 84.82,76.47 211.04,114.71 378.7,114.71 185.28,0 360.27,-32.37 524.95,-97.06l157.02 -939.72 -555.91 0 64.42 -352.94 926.49 0 -247.01 1469.12c-138.5,70.6 -288.98,130.14 -451.44,178.67 -162.49,48.55 -311.37,72.82 -446.69,72.82zm2472.38 -2505.92l-406.04 2452.96 -370.59 0 483.06 -2889.73 551.48 0c221.2,835.3 412.4,1651.49 573.57,2448.56l410.27 -2448.56 370.6 0 -483.04 2889.73 -551.48 0 -577.83 -2452.96zm1979.98 2452.96l483.04 -2889.73 1522.07 0 -59.39 339.71 -1147.08 0 -151.43 913.25 1058.85 0 -59.21 335.29 -1058.83 0 -162.44 961.77 1147.08 0 -50.59 339.71 -1522.07 0zm2553.75 -2550.02l59.39 -339.71 2051.5 0 -59.42 339.71 -838.24 0 -423.62 2550.02 -375.01 0 423.64 -2550.02 -838.24 0z"/>
   <path class="fil2 str1" d="M402.13 9269.39c-120.8,0 -212.95,-29.06 -276.49,-87.14 -63.53,-58.14 -95.3,-140.92 -95.3,-248.38 0,-25.01 1.86,-50.63 5.67,-76.85l58.49 -481.74c15.09,-128.72 56.61,-223.99 124.55,-285.84 67.95,-61.86 168.6,-92.8 301.96,-92.8 50.34,0 107.89,5.32 172.71,15.93 64.8,10.63 121.1,23.46 168.89,38.43l-18.86 146.21c-51.6,-18.74 -107.26,-34.03 -167.05,-45.92 -59.76,-11.87 -114.16,-17.8 -163.22,-17.8 -79.27,0 -139.66,18.11 -181.18,54.35 -41.5,36.26 -67.31,94.97 -77.39,176.2l-64.16 521.09c-2.52,22.49 -3.78,38.74 -3.78,48.74 0,64.99 18.86,113.73 56.64,146.2 37.72,32.5 92.44,48.74 164.16,48.74 79.28,0 153.51,-13.75 222.71,-41.23l49.09 -399.25 -237.8 0 20.75 -149.98 396.31 0 -77.35 624.21c-57.9,29.98 -121.12,55.28 -189.69,75.89 -68.57,20.63 -131.79,30.94 -189.66,30.94zm742.13 -22.49l150.99 -1227.75 651.12 0 -18.88 144.32 -490.69 0 -47.19 388 452.95 0 -18.86 142.48 -452.95 0 -50.98 408.61 490.71 0 -15.11 144.34 -651.11 0zm1483.96 -663.56c70.49,28.74 123,66.88 157.6,114.36 34.61,47.49 51.89,106.22 51.89,176.2 0,22.49 -1.86,48.11 -5.64,76.85l-3.78 24.35c-15.11,98.73 -53.8,172.45 -116.08,221.2 -62.27,48.74 -149.41,73.09 -261.37,73.09 -54.12,0 -113.24,-7.8 -177.41,-23.41 -64.19,-15.65 -118.29,-34.07 -162.32,-55.31l18.88 -159.34c86.8,43.75 166.71,74.36 239.68,91.84 25.17,2.52 52.21,3.78 81.17,3.78 65.42,0 115.1,-13.44 149.08,-40.32 33.97,-26.85 56.01,-68.42 66.05,-124.65l3.78 -20.6c3.77,-21.26 5.66,-40 5.66,-56.25 0,-40 -10.39,-72.78 -31.14,-98.4 -20.77,-25.62 -54.41,-47.8 -100.96,-66.56l-167.97 -67.49c-66.68,-26.21 -117.65,-64.95 -152.88,-116.19 -35.23,-51.23 -52.86,-111.21 -52.86,-179.96 0,-31.23 3.81,-63.72 11.36,-97.44l3.78 -16.88c36.47,-163.7 162.9,-245.57 379.31,-245.57 39.02,0 85.26,4.07 138.72,12.2 53.49,8.12 102.23,17.8 146.27,29.06l-20.75 151.82c-70.48,-20.01 -139.06,-36.26 -205.71,-48.74 -18.88,-1.25 -40.92,-1.85 -66.08,-1.85 -125.81,0 -196.27,46.85 -211.38,140.56l-3.75 22.52c-2.52,19.97 -3.77,34.96 -3.77,44.96 0,40 10.67,74.04 32.07,102.15 21.38,28.14 55.36,51.55 101.92,70.29l156.63 63.73zm455.74 -419.87l18.84 -144.32 877.62 0 -18.89 144.32 -358.57 0 -132.13 1083.43 -160.41 0 132.11 -1083.43 -358.57 0zm1779.33 1083.43l-171.74 0c-7.56,-58.72 -21.38,-153.71 -41.53,-284.92l-451.04 0c-42.78,108.74 -83.05,203.68 -120.8,284.92l-169.84 0 528.41 -1227.75 198.17 0 228.37 1227.75zm-347.26 -1079.66c-90.58,238.67 -176.15,456.1 -256.66,652.29l368.02 0c-32.71,-207.45 -69.84,-424.88 -111.36,-652.29zm300.07 -307.43c-3.75,2.52 -12.88,8.43 -27.34,17.82 -14.5,9.37 -33.68,18.11 -57.58,26.23 -23.92,8.13 -48.44,12.2 -73.6,12.2 -31.46,0 -70.46,-8.14 -117,-24.36 -45.3,-15.01 -81.16,-22.52 -107.57,-22.52 -18.89,0 -39.67,3.44 -62.31,10.31 -22.63,6.88 -42.15,14.08 -58.49,21.55 -16.38,7.51 -27.05,12.5 -32.09,15.02l13.23 -131.23c3.75,-2.47 12.9,-8.43 27.36,-17.8 14.44,-9.37 33.34,-18.11 56.61,-26.25 23.26,-8.11 47.5,-12.15 72.66,-12.15 39,0 83.67,8.74 133.99,26.22 36.49,13.76 67.31,20.63 92.49,20.63 18.86,0 39.32,-3.44 61.34,-10.31 22.01,-6.88 41.21,-14.08 57.55,-21.56 16.36,-7.5 27.05,-12.51 32.09,-14.98l-11.34 131.18zm754.57 136.83c119.52,0 212.3,30 278.37,89.97 66.06,60 99.06,144.36 99.06,253.06 0,29.99 -1.26,53.12 -3.76,69.36l-58.49 466.73c-32.73,262.42 -182.47,393.63 -449.18,393.63 -123.31,0 -217.38,-29.37 -282.14,-88.09 -64.8,-58.74 -97.22,-142.46 -97.22,-251.18 0,-22.5 1.88,-46.88 5.67,-73.1l58.49 -466.73c17.63,-134.96 62.3,-234.31 134.02,-298.03 71.69,-63.74 176.78,-95.62 315.18,-95.62zm-11.35 140.6c-166.05,0 -258.52,79.35 -277.41,238.04l-60.39 502.34c-2.52,22.5 -3.77,38.77 -3.77,48.74 0,66.23 19.8,116.54 59.44,150.91 39.63,34.35 95.93,51.54 168.9,51.54 164.82,0 257.29,-79.98 277.44,-239.93l62.27 -500.47c2.52,-22.5 3.78,-39.35 3.78,-50.61 0,-66.25 -19.49,-116.2 -58.5,-149.96 -39,-33.72 -96.24,-50.6 -171.76,-50.6zm1149.27 1109.66l151.02 -1227.75 651.12 0 -18.9 144.32 -490.69 0 -47.19 388 452.95 0 -18.87 142.48 -452.95 0 -50.94 408.61 490.7 0 -15.13 144.34 -651.12 0zm2021.18 0l-158.52 0 111.34 -1002.83 -371.8 875.37 -196.27 0 -150.98 -871.62 -130.23 999.08 -158.52 0 162.3 -1227.75 228.36 0c72.97,363.63 125.83,681.65 158.54,954.09 134.62,-293.65 266.1,-611.69 394.43,-954.09l251.01 0 -139.66 1227.75zm1332 -1250.26c41.49,0 87.75,4.07 138.71,12.2 50.95,8.12 98.45,19.06 142.5,32.81l-20.78 149.93c-44.04,-17.49 -89.63,-31.24 -136.83,-41.21 -47.19,-10.03 -89.63,-15.02 -127.4,-15.02 -139.64,0 -218.28,77.49 -235.88,232.45l-62.28 515.44c-2.52,30 -3.78,51.26 -3.78,63.75 0,62.47 15.08,107.46 45.28,134.97 30.19,27.48 78.02,41.21 143.43,41.21 81.8,0 176.16,-23.73 283.1,-71.21l-15.11 149.95c-40.24,20 -88.37,36.25 -144.35,48.74 -56.01,12.5 -105.37,18.74 -148.16,18.74 -108.21,0 -189.35,-25.93 -243.46,-77.8 -54.09,-51.83 -81.17,-131.5 -81.17,-238.98 0,-28.74 1.92,-59.97 5.67,-93.71l58.5 -479.86c16.36,-129.96 57.87,-226.18 124.58,-288.64 66.68,-62.5 159.15,-93.76 277.43,-93.76zm979.68 0c119.54,0 212.35,30 278.4,89.97 66.03,60 99.08,144.36 99.08,253.06 0,29.99 -1.26,53.12 -3.78,69.36l-58.5 466.73c-32.7,262.42 -182.44,393.63 -449.2,393.63 -123.29,0 -217.33,-29.37 -282.13,-88.09 -64.81,-58.74 -97.18,-142.46 -97.18,-251.18 0,-22.5 1.88,-46.88 5.66,-73.1l58.48 -466.73c17.62,-134.96 62.3,-234.31 134.01,-298.03 71.72,-63.74 176.76,-95.62 315.16,-95.62zm-11.31 140.6c-166.08,0 -258.55,79.35 -277.43,238.04l-60.38 502.34c-2.52,22.5 -3.79,38.77 -3.79,48.74 0,66.23 19.81,116.54 59.45,150.91 39.64,34.35 95.96,51.54 168.93,51.54 164.8,0 257.29,-79.98 277.41,-239.93l62.28 -500.47c2.51,-22.5 3.77,-39.35 3.77,-50.61 0,-66.25 -19.51,-116.2 -58.5,-149.96 -39.01,-33.72 -96.24,-50.6 -171.74,-50.6zm875.91 67.48l-126.44 1042.18 -158.57 0 151.01 -1227.75 235.91 0c110.72,354.9 208.23,701.65 292.54,1040.32l128.32 -1040.32 158.53 0 -150.97 1227.75 -235.93 0 -294.4 -1042.18zm1724.2 -185.57l-18.89 144.32 -490.67 0 -47.19 388 369.9 0 -18.86 142.48 -369.92 0 -66.06 552.95 -160.39 0 150.97 -1227.75 651.11 0zm604.77 -22.51c119.53,0 212.35,30 278.38,89.97 66.05,60 99.08,144.36 99.08,253.06 0,29.99 -1.27,53.12 -3.76,69.36l-58.52 466.73c-32.71,262.42 -182.44,393.63 -449.18,393.63 -123.29,0 -217.36,-29.37 -282.14,-88.09 -64.78,-58.74 -97.2,-142.46 -97.2,-251.18 0,-22.5 1.89,-46.88 5.67,-73.1l58.52 -466.73c17.61,-134.96 62.25,-234.31 134,-298.03 71.71,-63.74 176.75,-95.62 315.15,-95.62zm-11.34 140.6c-166.05,0 -258.52,79.35 -277.43,238.04l-60.38 502.34c-2.52,22.5 -3.78,38.77 -3.78,48.74 0,66.23 19.84,116.54 59.47,150.91 39.63,34.35 95.93,51.54 168.91,51.54 164.82,0 257.29,-79.98 277.43,-239.93l62.27 -500.47c2.52,-22.5 3.79,-39.35 3.79,-50.61 0,-66.25 -19.5,-116.2 -58.51,-149.96 -39,-33.72 -96.26,-50.6 -171.77,-50.6zm1072.88 -140.6c125.81,0 223.95,28.14 294.41,84.36 70.45,56.24 105.68,129.34 105.68,219.32 0,12.49 -1.23,30 -3.75,52.49l-5.67 37.48c-10.06,69.96 -39.32,131.84 -87.76,185.57 -48.43,53.72 -109.78,92.47 -184,116.19l258.55 554.85 -183.05 0c-59.15,-144.97 -104.77,-253.69 -136.86,-326.15 -32.07,-72.47 -66.36,-141.82 -102.85,-208.06 -64.17,0 -130.85,-5.01 -200.05,-14.99l-66.05 549.2 -160.43 0 152.87 -1240.87c117.03,-6.24 223.32,-9.39 318.96,-9.39zm-175.52 136.85l-54.74 442.37c66.68,7.48 122.06,11.24 166.1,11.24 173.61,0 272.39,-70.61 296.29,-211.82l1.89 -11.24c2.51,-22.49 3.78,-38.74 3.78,-48.74 0,-59.97 -21.07,-105.9 -63.22,-137.77 -42.15,-31.86 -104.74,-47.79 -187.79,-47.79l-162.31 3.75zm1887.21 1113.41l-158.55 0 111.36 -1002.83 -371.8 875.37 -196.29 0 -150.96 -871.62 -130.25 999.08 -158.52 0 162.3 -1227.75 228.38 0c72.97,363.63 125.83,681.65 158.52,954.09 134.62,-293.65 266.12,-611.69 394.45,-954.09l251.02 0 -139.66 1227.75zm382.34 0l150.97 -1227.75 160.43 0 -150.98 1227.75 -160.42 0zm717.09 -1240.87c88.06,-6.24 195.01,-9.39 320.82,-9.39 139.66,0 246.93,36.56 321.79,109.66 74.88,73.1 112.3,175.28 112.3,306.48 0,29.98 -1.89,61.24 -5.66,93.71l-39.64 311.16c-18.86,149.97 -71.71,262.73 -158.52,338.32 -86.8,75.63 -210.75,113.42 -371.81,113.42 -106.93,0 -218.28,-5.62 -334.05,-16.88l154.77 -1246.48zm20.76 1113.41c69.19,8.76 127.06,13.12 173.62,13.12 96.88,0 177.1,-27.19 240.63,-81.54 63.54,-54.37 101.6,-130.9 114.17,-229.61l41.54 -328.02c3.76,-26.24 5.65,-51.26 5.65,-74.98 0,-93.74 -25.16,-164.95 -75.47,-213.69 -50.34,-48.74 -120.8,-73.12 -211.38,-73.12l-166.08 3.75 -122.68 984.09zm1790.03 127.46l-171.77 0c-7.53,-58.72 -21.35,-153.71 -41.52,-284.92l-451.04 0c-42.78,108.74 -83.05,203.68 -120.79,284.92l-169.86 0 528.45 -1227.75 198.15 0 228.38 1227.75zm-347.29 -1079.66c-90.58,238.67 -176.15,456.1 -256.66,652.29l368.02 0c-32.71,-207.45 -69.83,-424.88 -111.36,-652.29zm738.5 -161.21c88.09,-6.24 195.01,-9.39 320.85,-9.39 139.63,0 246.91,36.56 321.79,109.66 74.83,73.1 112.29,175.28 112.29,306.48 0,29.98 -1.91,61.24 -5.67,93.71l-39.63 311.16c-18.89,149.97 -71.74,262.73 -158.52,338.32 -86.83,75.63 -210.75,113.42 -371.82,113.42 -106.95,0 -218.3,-5.62 -334.04,-16.88l154.75 -1246.48zm20.77 1113.41c69.18,8.76 127.05,13.12 173.61,13.12 96.9,0 177.09,-27.19 240.65,-81.54 63.53,-54.37 101.6,-130.9 114.17,-229.61l41.52 -328.02c3.77,-26.24 5.65,-51.26 5.65,-74.98 0,-93.74 -25.14,-164.95 -75.48,-213.69 -50.31,-48.74 -120.8,-73.12 -211.37,-73.12l-166.09 3.75 -122.66 984.09zm976.27 127.46l150.99 -1227.75 651.11 0 -18.86 144.32 -490.7 0 -47.2 388 452.96 0 -18.86 142.48 -452.98 0 -50.94 408.61 490.69 0 -15.11 144.34 -651.1 0z"/>
  </g>
 </g>
</svg>
